{
    "asset" : {
        "generator" : "Khronos glTF Blender I/O v3.2.40",
        "version" : "2.0"
    },
    "scene" : 0,
    "scenes" : [
        {
            "name" : "Scene",
            "nodes" : [
                7,
                8
            ]
        }
    ],
    "nodes" : [
        {
            "mesh" : 0,
            "name" : "Headphones"
        },
        {
            "mesh" : 1,
            "name" : "Notebook"
        },
        {
            "mesh" : 2,
            "name" : "Rocket.003"
        },
        {
            "mesh" : 3,
            "name" : "Roundcube.001"
        },
        {
            "mesh" : 4,
            "name" : "Table"
        },
        {
            "mesh" : 5,
            "name" : "VR Headset"
        },
        {
            "mesh" : 6,
            "name" : "Zeppelin"
        },
        {
            "children" : [
                0,
                1,
                2,
                3,
                4,
                5,
                6
            ],
            "name" : "OverallParent",
            "scale" : [
                0.2503169775009155,
                0.2503169775009155,
                0.2503169775009155
            ],
            "translation" : [
                0.06144148111343384,
                4.042202472686768,
                0.346065491437912
            ]
        },
        {
            "name" : "Camera.001",
            "rotation" : [
                0.5179693102836609,
                -0.3799866735935211,
                0.7152606844902039,
                0.2751728594303131
            ],
            "translation" : [
                -10.722293853759766,
                -5.981247901916504,
                2.297250747680664
            ]
        }
    ],
    "animations" : [
        {
            "channels" : [
                {
                    "sampler" : 0,
                    "target" : {
                        "node" : 8,
                        "path" : "translation"
                    }
                },
                {
                    "sampler" : 1,
                    "target" : {
                        "node" : 8,
                        "path" : "rotation"
                    }
                }
            ],
            "name" : "CameraAction.005",
            "samplers" : [
                {
                    "input" : 28,
                    "interpolation" : "LINEAR",
                    "output" : 29
                },
                {
                    "input" : 28,
                    "interpolation" : "LINEAR",
                    "output" : 30
                }
            ]
        }
    ],
    "materials" : [
        {
            "doubleSided" : true,
            "name" : "M_Headphone",
            "pbrMetallicRoughness" : {
                "baseColorTexture" : {
                    "index" : 0
                },
                "metallicFactor" : 0,
                "roughnessFactor" : 0.5
            }
        },
        {
            "doubleSided" : true,
            "name" : "M_Notebook",
            "pbrMetallicRoughness" : {
                "baseColorTexture" : {
                    "index" : 1
                },
                "metallicFactor" : 0,
                "roughnessFactor" : 0.5
            }
        },
        {
            "doubleSided" : true,
            "name" : "M_Rocket",
            "pbrMetallicRoughness" : {
                "baseColorTexture" : {
                    "index" : 2
                },
                "metallicFactor" : 0,
                "roughnessFactor" : 0.5
            }
        },
        {
            "doubleSided" : true,
            "name" : "M_Roundcube",
            "pbrMetallicRoughness" : {
                "baseColorTexture" : {
                    "index" : 3
                },
                "metallicFactor" : 0,
                "roughnessFactor" : 0.5
            }
        },
        {
            "doubleSided" : true,
            "name" : "M_Table",
            "pbrMetallicRoughness" : {
                "baseColorTexture" : {
                    "index" : 4
                },
                "metallicFactor" : 0,
                "roughnessFactor" : 0.5
            }
        },
        {
            "doubleSided" : true,
            "name" : "M_Headset",
            "pbrMetallicRoughness" : {
                "baseColorTexture" : {
                    "index" : 5
                },
                "metallicFactor" : 0,
                "roughnessFactor" : 0.5
            }
        },
        {
            "doubleSided" : true,
            "name" : "M_Zeppelin",
            "pbrMetallicRoughness" : {
                "baseColorTexture" : {
                    "index" : 6
                },
                "metallicFactor" : 0,
                "roughnessFactor" : 0.5
            }
        }
    ],
    "meshes" : [
        {
            "name" : "Headphones.001",
            "primitives" : [
                {
                    "attributes" : {
                        "POSITION" : 0,
                        "NORMAL" : 1,
                        "TEXCOORD_0" : 2
                    },
                    "indices" : 3,
                    "material" : 0
                }
            ]
        },
        {
            "name" : "base notebook.001",
            "primitives" : [
                {
                    "attributes" : {
                        "POSITION" : 4,
                        "NORMAL" : 5,
                        "TEXCOORD_0" : 6
                    },
                    "indices" : 7,
                    "material" : 1
                }
            ]
        },
        {
            "name" : "Rocket.006",
            "primitives" : [
                {
                    "attributes" : {
                        "POSITION" : 8,
                        "NORMAL" : 9,
                        "TEXCOORD_0" : 10
                    },
                    "indices" : 11,
                    "material" : 2
                }
            ]
        },
        {
            "name" : "Roundcube.001",
            "primitives" : [
                {
                    "attributes" : {
                        "POSITION" : 12,
                        "NORMAL" : 13,
                        "TEXCOORD_0" : 14
                    },
                    "indices" : 15,
                    "material" : 3
                }
            ]
        },
        {
            "name" : "Group_001",
            "primitives" : [
                {
                    "attributes" : {
                        "POSITION" : 16,
                        "NORMAL" : 17,
                        "TEXCOORD_0" : 18
                    },
                    "indices" : 19,
                    "material" : 4
                }
            ]
        },
        {
            "name" : "VR_Cube.000_VR",
            "primitives" : [
                {
                    "attributes" : {
                        "POSITION" : 20,
                        "NORMAL" : 21,
                        "TEXCOORD_0" : 22
                    },
                    "indices" : 23,
                    "material" : 5
                }
            ]
        },
        {
            "name" : "Cylinder01.001",
            "primitives" : [
                {
                    "attributes" : {
                        "POSITION" : 24,
                        "NORMAL" : 25,
                        "TEXCOORD_0" : 26
                    },
                    "indices" : 27,
                    "material" : 6
                }
            ]
        }
    ],
    "textures" : [
        {
            "sampler" : 0,
            "source" : 0
        },
        {
            "sampler" : 0,
            "source" : 1
        },
        {
            "sampler" : 0,
            "source" : 2
        },
        {
            "sampler" : 0,
            "source" : 3
        },
        {
            "sampler" : 0,
            "source" : 4
        },
        {
            "sampler" : 0,
            "source" : 5
        },
        {
            "sampler" : 0,
            "source" : 6
        }
    ],
    "images" : [
        {
            "bufferView" : 4,
            "mimeType" : "image/jpeg",
            "name" : "Image_0"
        },
        {
            "bufferView" : 9,
            "mimeType" : "image/jpeg",
            "name" : "Image_1"
        },
        {
            "bufferView" : 14,
            "mimeType" : "image/jpeg",
            "name" : "Image_2"
        },
        {
            "bufferView" : 19,
            "mimeType" : "image/jpeg",
            "name" : "Image_3"
        },
        {
            "bufferView" : 24,
            "mimeType" : "image/jpeg",
            "name" : "Image_4"
        },
        {
            "bufferView" : 29,
            "mimeType" : "image/jpeg",
            "name" : "Image_5"
        },
        {
            "bufferView" : 34,
            "mimeType" : "image/jpeg",
            "name" : "Image_6"
        }
    ],
    "accessors" : [
        {
            "bufferView" : 0,
            "componentType" : 5126,
            "count" : 2158,
            "max" : [
                41.594947814941406,
                10.387367248535156,
                20.163524627685547
            ],
            "min" : [
                26.214927673339844,
                -8.34130859375,
                6.494427680969238
            ],
            "type" : "VEC3"
        },
        {
            "bufferView" : 1,
            "componentType" : 5126,
            "count" : 2158,
            "type" : "VEC3"
        },
        {
            "bufferView" : 2,
            "componentType" : 5126,
            "count" : 2158,
            "type" : "VEC2"
        },
        {
            "bufferView" : 3,
            "componentType" : 5123,
            "count" : 2190,
            "type" : "SCALAR"
        },
        {
            "bufferView" : 5,
            "componentType" : 5126,
            "count" : 6918,
            "max" : [
                -20.468891143798828,
                45.8603515625,
                -10.636697769165039
            ],
            "min" : [
                -41.149688720703125,
                28.449066162109375,
                -33.556888580322266
            ],
            "type" : "VEC3"
        },
        {
            "bufferView" : 6,
            "componentType" : 5126,
            "count" : 6918,
            "type" : "VEC3"
        },
        {
            "bufferView" : 7,
            "componentType" : 5126,
            "count" : 6918,
            "type" : "VEC2"
        },
        {
            "bufferView" : 8,
            "componentType" : 5123,
            "count" : 8244,
            "type" : "SCALAR"
        },
        {
            "bufferView" : 10,
            "componentType" : 5126,
            "count" : 1375,
            "max" : [
                45.17272186279297,
                14.764754295349121,
                -0.00406646728515625
            ],
            "min" : [
                37.18356704711914,
                3.9825401306152344,
                -25.75808334350586
            ],
            "type" : "VEC3"
        },
        {
            "bufferView" : 11,
            "componentType" : 5126,
            "count" : 1375,
            "type" : "VEC3"
        },
        {
            "bufferView" : 12,
            "componentType" : 5126,
            "count" : 1375,
            "type" : "VEC2"
        },
        {
            "bufferView" : 13,
            "componentType" : 5123,
            "count" : 1449,
            "type" : "SCALAR"
        },
        {
            "bufferView" : 15,
            "componentType" : 5126,
            "count" : 4322,
            "max" : [
                25.432077407836914,
                31.19580078125,
                -24.554655075073242
            ],
            "min" : [
                18.0097599029541,
                15.13503646850586,
                -32.43204116821289
            ],
            "type" : "VEC3"
        },
        {
            "bufferView" : 16,
            "componentType" : 5126,
            "count" : 4322,
            "type" : "VEC3"
        },
        {
            "bufferView" : 17,
            "componentType" : 5126,
            "count" : 4322,
            "type" : "VEC2"
        },
        {
            "bufferView" : 18,
            "componentType" : 5123,
            "count" : 6228,
            "type" : "SCALAR"
        },
        {
            "bufferView" : 20,
            "componentType" : 5126,
            "count" : 1078,
            "max" : [
                8.34018611907959,
                31.800132751464844,
                -31.808135986328125
            ],
            "min" : [
                -11.157731056213379,
                19.295825958251953,
                -51.39215850830078
            ],
            "type" : "VEC3"
        },
        {
            "bufferView" : 21,
            "componentType" : 5126,
            "count" : 1078,
            "type" : "VEC3"
        },
        {
            "bufferView" : 22,
            "componentType" : 5126,
            "count" : 1078,
            "type" : "VEC2"
        },
        {
            "bufferView" : 23,
            "componentType" : 5123,
            "count" : 1146,
            "type" : "SCALAR"
        },
        {
            "bufferView" : 25,
            "componentType" : 5126,
            "count" : 4698,
            "max" : [
                13.187665939331055,
                -0.870814323425293,
                35.59903335571289
            ],
            "min" : [
                -8.443336486816406,
                -14.873381614685059,
                12.257619857788086
            ],
            "type" : "VEC3"
        },
        {
            "bufferView" : 26,
            "componentType" : 5126,
            "count" : 4698,
            "type" : "VEC3"
        },
        {
            "bufferView" : 27,
            "componentType" : 5126,
            "count" : 4698,
            "type" : "VEC2"
        },
        {
            "bufferView" : 28,
            "componentType" : 5123,
            "count" : 6072,
            "type" : "SCALAR"
        },
        {
            "bufferView" : 30,
            "componentType" : 5126,
            "count" : 2952,
            "max" : [
                -11.88849925994873,
                65.7268295288086,
                18.774749755859375
            ],
            "min" : [
                -24.47077178955078,
                48.25348663330078,
                -6.255290985107422
            ],
            "type" : "VEC3"
        },
        {
            "bufferView" : 31,
            "componentType" : 5126,
            "count" : 2952,
            "type" : "VEC3"
        },
        {
            "bufferView" : 32,
            "componentType" : 5126,
            "count" : 2952,
            "type" : "VEC2"
        },
        {
            "bufferView" : 33,
            "componentType" : 5123,
            "count" : 2952,
            "type" : "SCALAR"
        },
        {
            "bufferView" : 35,
            "componentType" : 5126,
            "count" : 140,
            "max" : [
                5.833333333333333
            ],
            "min" : [
                0.041666666666666664
            ],
            "type" : "SCALAR"
        },
        {
            "bufferView" : 36,
            "componentType" : 5126,
            "count" : 140,
            "type" : "VEC3"
        },
        {
            "bufferView" : 37,
            "componentType" : 5126,
            "count" : 140,
            "type" : "VEC4"
        }
    ],
    "bufferViews" : [
        {
            "buffer" : 0,
            "byteLength" : 25896,
            "byteOffset" : 0
        },
        {
            "buffer" : 0,
            "byteLength" : 25896,
            "byteOffset" : 25896
        },
        {
            "buffer" : 0,
            "byteLength" : 17264,
            "byteOffset" : 51792
        },
        {
            "buffer" : 0,
            "byteLength" : 4380,
            "byteOffset" : 69056
        },
        {
            "buffer" : 0,
            "byteLength" : 99136,
            "byteOffset" : 73436
        },
        {
            "buffer" : 0,
            "byteLength" : 83016,
            "byteOffset" : 172572
        },
        {
            "buffer" : 0,
            "byteLength" : 83016,
            "byteOffset" : 255588
        },
        {
            "buffer" : 0,
            "byteLength" : 55344,
            "byteOffset" : 338604
        },
        {
            "buffer" : 0,
            "byteLength" : 16488,
            "byteOffset" : 393948
        },
        {
            "buffer" : 0,
            "byteLength" : 120914,
            "byteOffset" : 410436
        },
        {
            "buffer" : 0,
            "byteLength" : 16500,
            "byteOffset" : 531352
        },
        {
            "buffer" : 0,
            "byteLength" : 16500,
            "byteOffset" : 547852
        },
        {
            "buffer" : 0,
            "byteLength" : 11000,
            "byteOffset" : 564352
        },
        {
            "buffer" : 0,
            "byteLength" : 2898,
            "byteOffset" : 575352
        },
        {
            "buffer" : 0,
            "byteLength" : 85871,
            "byteOffset" : 578252
        },
        {
            "buffer" : 0,
            "byteLength" : 51864,
            "byteOffset" : 664124
        },
        {
            "buffer" : 0,
            "byteLength" : 51864,
            "byteOffset" : 715988
        },
        {
            "buffer" : 0,
            "byteLength" : 34576,
            "byteOffset" : 767852
        },
        {
            "buffer" : 0,
            "byteLength" : 12456,
            "byteOffset" : 802428
        },
        {
            "buffer" : 0,
            "byteLength" : 77906,
            "byteOffset" : 814884
        },
        {
            "buffer" : 0,
            "byteLength" : 12936,
            "byteOffset" : 892792
        },
        {
            "buffer" : 0,
            "byteLength" : 12936,
            "byteOffset" : 905728
        },
        {
            "buffer" : 0,
            "byteLength" : 8624,
            "byteOffset" : 918664
        },
        {
            "buffer" : 0,
            "byteLength" : 2292,
            "byteOffset" : 927288
        },
        {
            "buffer" : 0,
            "byteLength" : 30579,
            "byteOffset" : 929580
        },
        {
            "buffer" : 0,
            "byteLength" : 56376,
            "byteOffset" : 960160
        },
        {
            "buffer" : 0,
            "byteLength" : 56376,
            "byteOffset" : 1016536
        },
        {
            "buffer" : 0,
            "byteLength" : 37584,
            "byteOffset" : 1072912
        },
        {
            "buffer" : 0,
            "byteLength" : 12144,
            "byteOffset" : 1110496
        },
        {
            "buffer" : 0,
            "byteLength" : 128065,
            "byteOffset" : 1122640
        },
        {
            "buffer" : 0,
            "byteLength" : 35424,
            "byteOffset" : 1250708
        },
        {
            "buffer" : 0,
            "byteLength" : 35424,
            "byteOffset" : 1286132
        },
        {
            "buffer" : 0,
            "byteLength" : 23616,
            "byteOffset" : 1321556
        },
        {
            "buffer" : 0,
            "byteLength" : 5904,
            "byteOffset" : 1345172
        },
        {
            "buffer" : 0,
            "byteLength" : 63688,
            "byteOffset" : 1351076
        },
        {
            "buffer" : 0,
            "byteLength" : 560,
            "byteOffset" : 1414764
        },
        {
            "buffer" : 0,
            "byteLength" : 1680,
            "byteOffset" : 1415324
        },
        {
            "buffer" : 0,
            "byteLength" : 2240,
            "byteOffset" : 1417004
        }
    ],
    "samplers" : [
        {
            "magFilter" : 9729,
            "minFilter" : 9987
        }
    ],
    "buffers" : [
        {
            "byteLength" : 1419244,
            "uri" : "data:application/octet-stream;base64,"
        }
    ]
}
