{
    "asset" : {
        "generator" : "Khronos glTF Blender I/O v3.2.40",
        "version" : "2.0"
    },
    "scene" : 0,
    "scenes" : [
        {
            "extras" : {
                "skinify" : {
                    "connect_mesh" : 0,
                    "connect_parents" : 0,
                    "generate_all" : 0,
                    "thickness" : 0.800000011920929,
                    "finger_thickness" : 0.25,
                    "apply_mod" : 1,
                    "parent_armature" : 1,
                    "sub_level" : 1
                },
                "faceit_control_armature" : {},
                "faceit_workspace" : {},
                "faceit_pin_panels" : {},
                "faceit_armature" : {}
            },
            "name" : "Scene",
            "nodes" : [
                4,
                6
            ]
        }
    ],
    "nodes" : [
        {
            "mesh" : 0,
            "name" : "Cone"
        },
        {
            "mesh" : 1,
            "name" : "Cube"
        },
        {
            "mesh" : 2,
            "name" : "Sphere"
        },
        {
            "mesh" : 3,
            "name" : "Suzanne"
        },
        {
            "children" : [
                0,
                1,
                2,
                3
            ],
            "name" : "ModelList"
        },
        {
            "camera" : 0,
            "name" : "CameraMain",
            "rotation" : [
                0.018137848004698753,
                0.7278501987457275,
                -0.0047339508309960365,
                0.6854799389839172
            ]
        },
        {
            "children" : [
                5
            ],
            "name" : "Camera"
        }
    ],
    "cameras" : [
        {
            "name" : "Camera.001",
            "perspective" : {
                "aspectRatio" : 1.7777777777777777,
                "yfov" : 0.39959652046304894,
                "zfar" : 1000,
                "znear" : 0.10000000149011612
            },
            "type" : "perspective"
        }
    ],
    "animations" : [
        {
            "channels" : [
                {
                    "sampler" : 0,
                    "target" : {
                        "node" : 6,
                        "path" : "translation"
                    }
                },
                {
                    "sampler" : 1,
                    "target" : {
                        "node" : 6,
                        "path" : "rotation"
                    }
                },
                {
                    "sampler" : 2,
                    "target" : {
                        "node" : 6,
                        "path" : "scale"
                    }
                }
            ],
            "name" : "Empty.001Action",
            "samplers" : [
                {
                    "input" : 16,
                    "interpolation" : "LINEAR",
                    "output" : 17
                },
                {
                    "input" : 18,
                    "interpolation" : "LINEAR",
                    "output" : 19
                },
                {
                    "input" : 20,
                    "interpolation" : "LINEAR",
                    "output" : 21
                }
            ]
        }
    ],
    "materials" : [
        {
            "doubleSided" : true,
            "name" : "Material.001",
            "pbrMetallicRoughness" : {
                "baseColorFactor" : [
                    0.8000000715255737,
                    0.004733381327241659,
                    0,
                    1
                ],
                "metallicFactor" : 0,
                "roughnessFactor" : 0.5
            }
        },
        {
            "doubleSided" : true,
            "name" : "Material.002",
            "pbrMetallicRoughness" : {
                "baseColorFactor" : [
                    0.008933598175644875,
                    0.8000000715255737,
                    0,
                    1
                ],
                "metallicFactor" : 0,
                "roughnessFactor" : 0.5
            }
        },
        {
            "doubleSided" : true,
            "name" : "Material.003",
            "pbrMetallicRoughness" : {
                "baseColorFactor" : [
                    0.004419134464114904,
                    0,
                    0.8000000715255737,
                    1
                ],
                "metallicFactor" : 0,
                "roughnessFactor" : 0.5
            }
        },
        {
            "doubleSided" : true,
            "name" : "Material.004",
            "pbrMetallicRoughness" : {
                "baseColorFactor" : [
                    0.8000000715255737,
                    0.5455642342567444,
                    0,
                    1
                ],
                "metallicFactor" : 0,
                "roughnessFactor" : 0.5
            }
        }
    ],
    "meshes" : [
        {
            "name" : "Cone",
            "primitives" : [
                {
                    "attributes" : {
                        "POSITION" : 0,
                        "NORMAL" : 1,
                        "TEXCOORD_0" : 2
                    },
                    "indices" : 3,
                    "material" : 0
                }
            ]
        },
        {
            "name" : "Cube.001",
            "primitives" : [
                {
                    "attributes" : {
                        "POSITION" : 4,
                        "NORMAL" : 5,
                        "TEXCOORD_0" : 6
                    },
                    "indices" : 7,
                    "material" : 1
                }
            ]
        },
        {
            "name" : "Sphere",
            "primitives" : [
                {
                    "attributes" : {
                        "POSITION" : 8,
                        "NORMAL" : 9,
                        "TEXCOORD_0" : 10
                    },
                    "indices" : 11,
                    "material" : 2
                }
            ]
        },
        {
            "name" : "Suzanne",
            "primitives" : [
                {
                    "attributes" : {
                        "POSITION" : 12,
                        "NORMAL" : 13,
                        "TEXCOORD_0" : 14
                    },
                    "indices" : 15,
                    "material" : 3
                }
            ]
        }
    ],
    "accessors" : [
        {
            "bufferView" : 0,
            "componentType" : 5126,
            "count" : 128,
            "max" : [
                2.814316987991333,
                3.562662363052368,
                -8.980901718139648
            ],
            "min" : [
                -4.311007499694824,
                -3.562662363052368,
                -16.106225967407227
            ],
            "type" : "VEC3"
        },
        {
            "bufferView" : 1,
            "componentType" : 5126,
            "count" : 128,
            "type" : "VEC3"
        },
        {
            "bufferView" : 2,
            "componentType" : 5126,
            "count" : 128,
            "type" : "VEC2"
        },
        {
            "bufferView" : 3,
            "componentType" : 5123,
            "count" : 186,
            "type" : "SCALAR"
        },
        {
            "bufferView" : 4,
            "componentType" : 5126,
            "count" : 24,
            "max" : [
                -16.736419677734375,
                2.67060923576355,
                2.67060923576355
            ],
            "min" : [
                -22.07763671875,
                -2.67060923576355,
                -2.67060923576355
            ],
            "type" : "VEC3"
        },
        {
            "bufferView" : 5,
            "componentType" : 5126,
            "count" : 24,
            "type" : "VEC3"
        },
        {
            "bufferView" : 6,
            "componentType" : 5126,
            "count" : 24,
            "type" : "VEC2"
        },
        {
            "bufferView" : 7,
            "componentType" : 5123,
            "count" : 36,
            "type" : "SCALAR"
        },
        {
            "bufferView" : 8,
            "componentType" : 5126,
            "count" : 1984,
            "max" : [
                23.74147605895996,
                6.782692909240723,
                3.1538772583007812
            ],
            "min" : [
                16.51811981201172,
                -0.44066810607910156,
                -4.069477081298828
            ],
            "type" : "VEC3"
        },
        {
            "bufferView" : 9,
            "componentType" : 5126,
            "count" : 1984,
            "type" : "VEC3"
        },
        {
            "bufferView" : 10,
            "componentType" : 5126,
            "count" : 1984,
            "type" : "VEC2"
        },
        {
            "bufferView" : 11,
            "componentType" : 5123,
            "count" : 2880,
            "type" : "SCALAR"
        },
        {
            "bufferView" : 12,
            "componentType" : 5126,
            "count" : 1966,
            "max" : [
                3.77022385597229,
                2.7145612239837646,
                16.90969467163086
            ],
            "min" : [
                -3.77022385597229,
                -2.7145612239837646,
                12.21307373046875
            ],
            "type" : "VEC3"
        },
        {
            "bufferView" : 13,
            "componentType" : 5126,
            "count" : 1966,
            "type" : "VEC3"
        },
        {
            "bufferView" : 14,
            "componentType" : 5126,
            "count" : 1966,
            "type" : "VEC2"
        },
        {
            "bufferView" : 15,
            "componentType" : 5123,
            "count" : 2904,
            "type" : "SCALAR"
        },
        {
            "bufferView" : 16,
            "componentType" : 5126,
            "count" : 2,
            "max" : [
                5.791666666666667
            ],
            "min" : [
                0
            ],
            "type" : "SCALAR"
        },
        {
            "bufferView" : 17,
            "componentType" : 5126,
            "count" : 2,
            "type" : "VEC3"
        },
        {
            "bufferView" : 18,
            "componentType" : 5126,
            "count" : 140,
            "max" : [
                5.791666666666667
            ],
            "min" : [
                0
            ],
            "type" : "SCALAR"
        },
        {
            "bufferView" : 19,
            "componentType" : 5126,
            "count" : 140,
            "type" : "VEC4"
        },
        {
            "bufferView" : 20,
            "componentType" : 5126,
            "count" : 2,
            "max" : [
                5.791666666666667
            ],
            "min" : [
                1.6666666666666667
            ],
            "type" : "SCALAR"
        },
        {
            "bufferView" : 21,
            "componentType" : 5126,
            "count" : 2,
            "type" : "VEC3"
        }
    ],
    "bufferViews" : [
        {
            "buffer" : 0,
            "byteLength" : 1536,
            "byteOffset" : 0
        },
        {
            "buffer" : 0,
            "byteLength" : 1536,
            "byteOffset" : 1536
        },
        {
            "buffer" : 0,
            "byteLength" : 1024,
            "byteOffset" : 3072
        },
        {
            "buffer" : 0,
            "byteLength" : 372,
            "byteOffset" : 4096
        },
        {
            "buffer" : 0,
            "byteLength" : 288,
            "byteOffset" : 4468
        },
        {
            "buffer" : 0,
            "byteLength" : 288,
            "byteOffset" : 4756
        },
        {
            "buffer" : 0,
            "byteLength" : 192,
            "byteOffset" : 5044
        },
        {
            "buffer" : 0,
            "byteLength" : 72,
            "byteOffset" : 5236
        },
        {
            "buffer" : 0,
            "byteLength" : 23808,
            "byteOffset" : 5308
        },
        {
            "buffer" : 0,
            "byteLength" : 23808,
            "byteOffset" : 29116
        },
        {
            "buffer" : 0,
            "byteLength" : 15872,
            "byteOffset" : 52924
        },
        {
            "buffer" : 0,
            "byteLength" : 5760,
            "byteOffset" : 68796
        },
        {
            "buffer" : 0,
            "byteLength" : 23592,
            "byteOffset" : 74556
        },
        {
            "buffer" : 0,
            "byteLength" : 23592,
            "byteOffset" : 98148
        },
        {
            "buffer" : 0,
            "byteLength" : 15728,
            "byteOffset" : 121740
        },
        {
            "buffer" : 0,
            "byteLength" : 5808,
            "byteOffset" : 137468
        },
        {
            "buffer" : 0,
            "byteLength" : 8,
            "byteOffset" : 143276
        },
        {
            "buffer" : 0,
            "byteLength" : 24,
            "byteOffset" : 143284
        },
        {
            "buffer" : 0,
            "byteLength" : 560,
            "byteOffset" : 143308
        },
        {
            "buffer" : 0,
            "byteLength" : 2240,
            "byteOffset" : 143868
        },
        {
            "buffer" : 0,
            "byteLength" : 8,
            "byteOffset" : 146108
        },
        {
            "buffer" : 0,
            "byteLength" : 24,
            "byteOffset" : 146116
        }
    ],
    "buffers" : [
        {
            "byteLength" : 146140,
            "uri" : "data:application/octet-stream;base64,"
        }
    ]
}
